<?xml version="1.0" encoding="utf-8"?><!-- Uploaded to: SVG Repo, www.svgrepo.com, Generator: SVG Repo Mixer Tools -->
<svg fill="#000000" width="800px" height="800px" viewBox="0 0 24 24" id="download-alt-3" data-name="Line Color" xmlns="http://www.w3.org/2000/svg" class="icon line-color"><line id="secondary" x1="12" y1="3" x2="12" y2="11" style="fill: none; stroke: #000; stroke-linecap: round; stroke-linejoin: round; stroke-width: 1;"></line><polyline id="secondary-2" data-name="secondary" points="9 8 12 11 15 8" style="fill: none; stroke: #000; stroke-linecap: round; stroke-linejoin: round; stroke-width: 1;"></polyline><path id="primary" d="M21,13,18.23,4.68A1,1,0,0,0,17.28,4H16" style="fill: none; stroke: rgb(0, 0, 0); stroke-linecap: round; stroke-linejoin: round; stroke-width: 1;"></path><path id="primary-2" data-name="primary" d="M8,4H6.72a1,1,0,0,0-1,.68L3,13" style="fill: none; stroke: rgb(0, 0, 0); stroke-linecap: round; stroke-linejoin: round; stroke-width: 1;"></path><path id="primary-3" data-name="primary" d="M21,13v7a1,1,0,0,1-1,1H4a1,1,0,0,1-1-1V13H8a4,4,0,0,0,8,0Z" style="fill: #fff3b4; stroke: rgb(0, 0, 0); stroke-linecap: round; stroke-linejoin: round; stroke-width: 1;"></path></svg>
