<?xml version="1.0" standalone="no"?>
<!DOCTYPE svg PUBLIC "-//W3C//DTD SVG 20010904//EN"
 "http://www.w3.org/TR/2001/REC-SVG-20010904/DTD/svg10.dtd">
<svg version="1.0" xmlns="http://www.w3.org/2000/svg"
 width="1024.000000pt" height="1024.000000pt" viewBox="0 0 1024.000000 1024.000000"
 preserveAspectRatio="xMidYMid meet">
<metadata>
Created by potrace 1.14, written by Peter Selinger 2001-2017
</metadata>
<g transform="translate(0.000000,1024.000000) scale(0.100000,-0.100000)"
fill="#000000" stroke="none">
<path d="M7315 9809 c-148 -41 -454 -211 -688 -382 -165 -121 -247 -194 -523
-464 -279 -272 -283 -276 -386 -329 l-68 -34 -290 0 c-315 0 -495 -10 -745
-41 -814 -100 -1218 -221 -1720 -511 -113 -66 -280 -170 -310 -195 -6 -4 -37
-28 -70 -52 -211 -156 -439 -366 -579 -531 -237 -280 -431 -623 -643 -1139
-66 -161 -160 -514 -138 -519 7 -2 71 10 141 27 205 47 197 46 190 25 -3 -11
-42 -133 -86 -272 -116 -366 -185 -628 -231 -872 -22 -118 -46 -246 -53 -284
l-13 -68 81 6 c45 4 110 12 145 17 35 5 65 8 68 5 2 -2 -5 -84 -16 -182 -39
-337 -44 -469 -37 -873 3 -212 8 -386 10 -388 2 -2 54 28 115 67 62 38 115 70
119 70 4 0 7 -120 7 -267 0 -234 12 -683 18 -690 1 -1 56 37 120 84 65 47 121
82 124 79 3 -3 16 -173 28 -378 13 -205 24 -375 24 -376 1 -2 31 41 69 97 37
55 70 101 73 101 4 0 16 -39 28 -86 74 -293 140 -424 355 -704 83 -109 280
-349 283 -347 1 1 7 74 13 162 6 88 18 207 26 265 13 97 70 408 79 438 3 7 59
-33 142 -103 75 -63 139 -115 142 -115 3 0 19 69 35 153 43 227 83 378 138
520 27 70 51 127 53 127 2 0 52 -54 111 -120 59 -66 111 -120 115 -120 4 0 10
17 14 38 12 69 107 417 115 426 5 5 45 -7 92 -28 172 -73 286 -102 508 -127
131 -14 408 -6 510 16 83 17 218 58 267 81 17 7 33 14 36 14 3 0 56 24 118 54
97 46 160 80 308 167 25 14 434 286 457 303 9 7 28 -4 66 -35 29 -25 125 -98
213 -164 88 -65 176 -130 195 -144 35 -27 199 -129 275 -172 115 -64 147 -80
230 -117 80 -35 158 -64 250 -92 62 -19 193 -41 299 -52 123 -11 391 -5 476
12 141 27 170 34 250 58 340 100 585 322 732 662 71 165 105 301 128 515 21
186 -21 438 -101 605 -130 272 -362 492 -649 613 -97 41 -242 74 -386 89 -135
13 -335 2 -504 -27 -117 -21 -362 -83 -435 -110 -72 -27 -237 -108 -275 -135
-16 -11 -31 -20 -34 -20 -11 0 -303 -197 -375 -253 -36 -28 -95 -73 -131 -101
-70 -54 -156 -123 -179 -144 -12 -12 -32 4 -130 100 -64 63 -156 152 -204 199
l-88 85 131 129 c72 72 134 131 139 133 4 1 30 -56 56 -128 26 -71 51 -130 56
-130 9 0 305 310 431 452 52 59 144 171 203 250 60 79 111 142 113 141 3 -1
27 -59 54 -130 27 -70 50 -129 52 -131 10 -9 266 322 369 478 129 194 162 282
197 520 11 73 21 135 24 137 2 2 55 -27 117 -66 62 -39 114 -69 116 -68 1 2
14 113 29 248 31 294 44 749 25 894 -72 544 -263 933 -652 1324 -202 202 -435
389 -576 460 -24 12 -43 28 -43 35 0 40 43 143 83 199 119 167 411 382 677
499 212 94 185 92 287 22 48 -32 144 -105 213 -161 l125 -103 3 68 c5 106 -16
350 -37 434 -35 136 -119 276 -199 332 -51 35 -142 66 -191 65 -20 0 -67 -9
-106 -20z m223 -154 c29 -16 66 -47 83 -69 54 -73 107 -237 123 -379 6 -55 13
-57 -84 24 -55 46 -226 169 -235 169 -24 0 -362 -164 -464 -225 -242 -146
-422 -294 -538 -442 -36 -47 -69 -80 -75 -77 -7 4 -8 2 -4 -5 7 -10 -24 -58
-111 -173 -15 -20 -33 -35 -40 -33 -7 2 -10 -2 -7 -8 2 -7 -14 -37 -36 -67
-22 -29 -40 -57 -40 -61 0 -17 -125 -130 -146 -131 -12 -1 -22 -5 -22 -8 2
-18 -3 -30 -12 -30 -6 0 -34 -16 -63 -35 -28 -19 -60 -35 -71 -35 -21 0 -26 4
160 -135 195 -147 268 -208 397 -335 208 -202 384 -405 491 -565 109 -164 142
-229 192 -381 50 -155 133 -518 121 -530 -2 -3 -12 26 -21 63 -10 37 -28 95
-41 128 -55 140 -94 258 -88 268 3 5 1 7 -5 4 -6 -4 -23 24 -42 70 -18 43 -38
86 -45 98 -7 11 -16 31 -20 44 -6 18 -4 22 6 16 8 -5 11 -5 7 -1 -3 4 -9 6
-11 4 -10 -6 -48 52 -45 69 2 12 -3 17 -13 15 -18 -2 -41 41 -33 62 3 8 1 17
-5 21 -6 3 -11 1 -11 -5 0 -6 -5 -8 -10 -5 -6 4 -8 16 -5 28 2 12 2 16 -1 9
-7 -16 -34 3 -34 24 0 7 -6 17 -13 21 -7 4 -28 28 -47 53 -115 147 -407 429
-536 516 -19 13 -47 35 -62 49 -15 14 -30 25 -33 25 -4 0 -42 24 -86 53 -84
56 -86 57 -122 87 -13 11 -27 20 -31 20 -4 0 -40 18 -80 40 -40 22 -76 40 -79
40 -3 0 -24 -17 -47 -38 -22 -20 -67 -59 -99 -87 -257 -218 -295 -258 -295
-301 0 -33 -32 -126 -52 -153 -10 -13 -18 -28 -18 -32 0 -15 -107 -149 -173
-219 -122 -127 -207 -179 -298 -180 -38 0 -50 -5 -79 -35 l-35 -36 115 -106
c213 -198 280 -271 420 -458 136 -182 247 -356 325 -512 92 -186 124 -277 169
-484 45 -209 99 -537 77 -469 -10 29 -29 111 -37 155 -6 33 -25 97 -49 165 -9
24 -14 52 -12 62 3 10 2 16 -3 13 -4 -3 -24 46 -45 108 -20 61 -40 117 -45
122 -15 21 -21 67 -9 81 7 9 8 14 1 14 -6 0 -12 -6 -14 -12 -3 -7 -24 25 -47
72 -41 82 -168 281 -183 288 -5 2 -8 9 -8 15 0 7 -15 29 -33 49 -51 59 -97
116 -97 122 0 3 -10 15 -22 28 -13 13 -54 59 -93 103 -89 102 -252 263 -330
328 -33 27 -80 68 -105 91 -59 55 -84 68 -104 53 -16 -13 -178 -229 -223 -298
-15 -24 -38 -55 -50 -69 -13 -14 -23 -28 -23 -32 0 -3 -6 -13 -13 -20 -22 -22
-97 -136 -97 -147 0 -5 -6 -14 -13 -18 -8 -4 -26 -32 -42 -60 -15 -29 -32 -53
-37 -53 -4 0 -8 -4 -8 -10 0 -11 -59 -109 -77 -128 -7 -7 -24 -36 -38 -65 -15
-28 -30 -54 -33 -57 -7 -5 -21 -28 -60 -100 -62 -114 -75 -132 -81 -121 -4 7
-8 -1 -8 -16 0 -28 -62 -145 -72 -138 -3 1 -7 -8 -8 -22 0 -14 -6 -29 -12 -32
-12 -8 -131 -256 -131 -274 0 -7 -4 -6 -10 3 -7 11 -10 5 -10 -23 0 -35 -14
-78 -41 -130 -5 -10 -7 -22 -4 -27 4 -6 -1 -10 -9 -10 -8 0 -18 -10 -21 -21
-6 -17 -9 -19 -17 -8 -7 10 -8 8 -3 -8 3 -12 2 -30 -4 -40 -30 -56 -268 -682
-310 -818 -13 -38 -26 -79 -31 -90 -5 -11 -23 -67 -40 -125 -17 -58 -41 -141
-55 -185 -50 -169 -67 -240 -69 -286 -2 -25 -12 -71 -23 -100 -12 -30 -24 -67
-27 -82 -4 -15 -11 -25 -15 -22 -5 3 -7 -3 -4 -13 2 -10 -7 -70 -21 -133 -13
-63 -28 -130 -32 -149 -3 -19 -14 -41 -23 -48 -9 -7 -10 -10 -2 -6 11 5 12 0
7 -27 -3 -19 -14 -83 -23 -144 -10 -60 -20 -112 -23 -115 -3 -3 -7 -30 -8 -60
-2 -30 -11 -116 -22 -190 -35 -248 -43 -380 -37 -597 6 -226 15 -319 53 -578
14 -93 28 -188 30 -210 l6 -40 -29 45 c-15 25 -47 73 -69 106 -111 160 -186
300 -234 439 -47 133 -131 507 -117 521 4 5 15 -44 37 -169 14 -76 71 -294 90
-345 13 -34 23 -46 35 -44 10 2 14 -1 10 -7 -3 -6 -1 -11 5 -11 18 0 62 -49
54 -62 -5 -8 -1 -9 12 -4 15 6 17 5 7 -5 -7 -7 -13 -20 -13 -28 0 -12 2 -13 8
-3 6 8 9 2 9 -18 0 -20 -3 -26 -9 -18 -5 9 -8 3 -8 -15 0 -19 4 -26 12 -21 7
5 9 2 6 -8 -12 -29 8 -41 63 -39 29 1 54 3 55 4 2 3 -35 249 -40 267 -7 19 1
-95 10 -149 6 -39 5 -41 -19 -41 l-26 0 0 157 c0 87 4 160 8 163 4 3 1 82 -6
175 -41 505 98 1425 332 2197 25 80 45 154 45 164 0 16 -10 17 -122 11 -68 -3
-136 -10 -153 -15 -16 -5 -50 -16 -75 -23 -25 -7 -50 -16 -55 -20 -6 -4 -37
-17 -70 -30 -33 -12 -72 -30 -87 -40 -14 -11 -38 -19 -53 -19 -14 0 -24 -4
-21 -9 4 -5 -17 -23 -45 -41 -28 -17 -56 -35 -62 -41 -7 -5 -37 -29 -67 -53
-54 -44 -127 -123 -184 -198 -16 -21 -32 -36 -36 -33 -10 6 -24 -13 -25 -36
-1 -15 -72 -119 -80 -119 -7 0 48 105 57 111 6 3 9 9 8 13 -4 12 90 164 138
224 122 153 308 280 542 371 138 54 187 66 340 84 l104 12 56 160 c165 466
283 751 460 1110 124 252 318 592 452 793 26 40 48 82 48 95 0 13 -3 17 -8 10
-4 -7 -61 -13 -162 -16 -348 -11 -550 -37 -775 -97 -66 -18 -130 -35 -143 -38
-12 -2 -25 -8 -28 -13 -3 -5 -14 -9 -24 -9 -11 0 -39 -9 -62 -19 -24 -11 -62
-25 -85 -32 -24 -7 -43 -16 -43 -21 0 -4 -7 -8 -15 -8 -24 0 -205 -93 -289
-149 -43 -28 -80 -51 -83 -51 -3 0 10 14 28 31 39 35 23 29 -36 -14 -22 -17
-31 -27 -20 -24 11 4 1 -10 -25 -33 -25 -22 -55 -40 -67 -40 -14 0 -27 -10
-35 -27 -7 -15 -22 -29 -33 -31 -11 -2 -24 -9 -30 -14 -7 -8 -6 -9 3 -4 27 16
10 -3 -20 -22 -18 -10 -71 -55 -118 -98 -139 -129 -141 -126 -12 17 190 212
324 334 458 417 228 141 496 247 874 343 214 55 386 80 688 103 106 8 195 16
196 17 1 2 52 74 113 159 61 86 161 221 222 300 l111 144 0 59 c0 46 3 58 14
54 11 -5 12 0 3 24 -9 24 -8 34 5 56 9 15 21 28 27 29 7 2 7 1 1 -3 -13 -6
-13 -43 0 -43 12 0 24 45 15 59 -3 6 -2 11 2 11 5 0 14 -9 21 -20 7 -12 8 -20
2 -20 -5 0 -10 -7 -10 -16 0 -13 4 -11 18 6 20 25 48 19 37 -7 -4 -13 -3 -14
10 -3 8 7 12 17 8 23 -3 5 -2 7 4 4 5 -3 65 50 134 119 121 121 123 124 91
124 -31 0 -57 -14 -196 -106 -32 -21 -68 -45 -80 -51 -21 -13 -21 -13 4 -14
14 0 19 -3 13 -6 -7 -2 -13 -14 -13 -25 0 -11 -5 -18 -12 -15 -7 2 -12 12 -12
21 2 19 -1 19 -27 6 -63 -34 42 136 118 190 l35 25 -41 12 c-23 6 -73 15 -112
19 -39 4 -65 10 -59 14 18 11 -585 12 -670 1 -41 -6 -120 -11 -175 -13 -55 -2
-102 -6 -105 -9 -3 -3 -41 -13 -85 -22 -130 -26 -139 -28 -170 -42 -16 -7 -68
-25 -115 -40 -47 -15 -93 -31 -102 -36 -10 -5 -27 -9 -38 -9 -11 0 -28 -4 -38
-10 -31 -17 -106 -50 -114 -50 -4 0 -49 -20 -100 -45 -50 -25 -98 -43 -105
-41 -7 3 -12 0 -10 -7 1 -7 -6 -11 -15 -11 -10 1 -15 -2 -12 -7 3 -5 -4 -9
-15 -9 -12 0 -21 -4 -21 -9 0 -5 -8 -11 -17 -14 -10 -3 -46 -22 -80 -41 -35
-20 -63 -34 -63 -32 0 16 325 222 480 304 218 115 396 171 675 211 367 52 846
61 1223 23 117 -12 219 -22 226 -22 13 0 447 388 720 644 49 46 148 165 197
238 109 161 379 481 478 567 192 164 511 379 759 508 l106 55 91 -4 c76 -3 98
-8 143 -33z m-5285 -2260 c-3 -9 -8 -14 -10 -11 -3 3 -2 9 2 15 9 16 15 13 8
-4z m2420 -70 c-3 -9 -8 -14 -10 -11 -3 3 -2 9 2 15 9 16 15 13 8 -4z m1124
-1768 c-7 -50 -6 -108 3 -192 17 -163 20 -205 16 -205 -8 0 -62 85 -76 120
-33 77 -13 286 36 397 l17 38 7 -43 c3 -23 2 -75 -3 -115z m320 -167 c-6 -24
11 -27 20 -4 11 30 44 -77 50 -166 5 -75 3 -91 -16 -127 -11 -23 -31 -49 -43
-57 -31 -22 -100 -20 -152 5 -40 19 -44 23 -41 52 2 18 1 26 -2 20 -2 -7 -12
-13 -21 -13 -15 0 -15 -2 -2 -10 8 -5 11 -10 5 -10 -15 1 -40 23 -48 42 -3 10
-3 17 1 17 24 -4 33 3 28 21 -3 11 -9 29 -12 40 -3 11 -1 20 5 20 6 0 12 -10
12 -22 1 -20 2 -21 5 -3 11 52 29 102 43 118 25 30 83 50 104 37 14 -8 22 -8
33 1 12 10 12 14 2 20 -10 7 -9 9 5 9 9 0 17 7 17 15 0 8 3 15 6 15 4 0 4 -9
1 -20z m-4154 -205 c-21 -24 -42 -45 -48 -45 -10 0 -163 -154 -199 -199 -10
-13 -27 -39 -38 -58 -11 -18 -22 -33 -25 -33 -3 0 -3 22 0 49 11 96 68 174
181 250 63 42 136 79 159 80 5 1 -9 -19 -30 -44z m-72 -301 c39 -13 49 -21 49
-38 0 -13 3 -26 8 -30 4 -4 7 -29 7 -56 0 -26 -3 -43 -7 -37 -4 7 -8 -4 -8
-24 0 -30 -8 -44 -49 -82 -99 -93 -204 -69 -230 54 -12 55 -15 176 -4 166 4
-4 13 7 21 25 13 32 14 32 23 10 4 -12 6 -30 3 -40 -4 -10 -2 -13 3 -7 16 20
79 63 98 68 32 8 34 8 86 -9z m1634 -154 c3 -5 1 -10 -4 -10 -6 0 -11 5 -11
10 0 6 2 10 4 10 3 0 8 -4 11 -10z m89 -85 c-4 -8 -11 -12 -16 -9 -6 4 -5 10
3 15 19 12 19 11 13 -6z m102 -131 c-4 -9 -9 -15 -11 -12 -3 3 -3 13 1 22 4 9
9 15 11 12 3 -3 3 -13 -1 -22z m241 -516 c-3 -8 -6 -5 -6 6 -1 11 2 17 5 13 3
-3 4 -12 1 -19z m60 -170 c-3 -7 -5 -2 -5 12 0 14 2 19 5 13 2 -7 2 -19 0 -25z
m3914 -82 c41 -8 95 -22 120 -30 213 -73 420 -297 475 -516 21 -82 14 -227
-15 -318 -83 -255 -252 -429 -491 -503 -67 -21 -94 -24 -260 -23 -114 0 -208
5 -245 13 -221 48 -307 73 -405 119 -138 65 -430 283 -635 476 l-70 66 81 77
c118 115 171 162 254 229 205 164 280 205 585 321 109 41 221 70 345 88 117
17 173 17 261 1z m-3894 -63 c-3 -10 -5 -4 -5 12 0 17 2 24 5 18 2 -7 2 -21 0
-30z m-10 -75 c-3 -7 -5 -2 -5 12 0 14 2 19 5 13 2 -7 2 -19 0 -25z m1303
-213 c126 -137 260 -304 260 -323 0 -11 -153 -138 -240 -200 -99 -71 -220
-152 -226 -152 -3 0 -18 -9 -33 -19 -15 -11 -72 -42 -127 -70 -209 -105 -395
-144 -587 -123 -99 11 -187 31 -187 42 0 18 186 370 232 440 71 108 319 383
332 369 2 -2 47 -65 101 -139 53 -74 98 -135 100 -135 2 0 63 79 135 175 147
194 161 212 169 208 4 -2 36 -35 71 -73z m-2436 -343 c2 -4 -4 -8 -14 -8 -10
0 -16 4 -14 8 3 4 9 8 14 8 5 0 11 -4 14 -8z m84 -147 c-3 -3 -9 2 -12 12 -6
14 -5 15 5 6 7 -7 10 -15 7 -18z m229 -347 c-3 -8 -6 -5 -6 6 -1 11 2 17 5 13
3 -3 4 -12 1 -19z m10 -50 c-3 -7 -5 -2 -5 12 0 14 2 19 5 13 2 -7 2 -19 0
-25z m-1337 -164 c-25 -25 -54 -50 -65 -56 -11 -5 7 15 40 46 73 67 85 72 25
10z m1357 -16 c-3 -8 -6 -5 -6 6 -1 11 2 17 5 13 3 -3 4 -12 1 -19z m-1452
-68 c-3 -5 -12 -10 -18 -10 -7 0 -6 4 3 10 19 12 23 12 15 0z m222 -387 c-3
-10 -5 -4 -5 12 0 17 2 24 5 18 2 -7 2 -21 0 -30z m150 5 c-3 -8 -6 -5 -6 6
-1 11 2 17 5 13 3 -3 4 -12 1 -19z m-79 -35 c-8 -10 -26 -33 -41 -51 -24 -30
-27 -31 -27 -12 0 12 4 19 8 16 4 -2 18 11 31 30 13 19 28 34 34 34 5 0 4 -8
-5 -17z"/>
<path d="M7518 9403 c7 -3 16 -2 19 1 4 3 -2 6 -13 5 -11 0 -14 -3 -6 -6z"/>
<path d="M7168 9383 c7 -3 16 -2 19 1 4 3 -2 6 -13 5 -11 0 -14 -3 -6 -6z"/>
<path d="M7210 9360 c-9 -6 -10 -10 -3 -10 6 0 15 5 18 10 8 12 4 12 -15 0z"/>
<path d="M6795 9214 l-30 -26 33 22 c17 12 32 23 32 26 0 7 -4 5 -35 -22z"/>
<path d="M6290 8785 c-19 -22 -8 -25 13 -3 9 10 13 18 8 18 -5 0 -14 -7 -21
-15z"/>
<path d="M6159 8637 c-36 -46 -46 -66 -17 -36 23 22 53 69 46 69 -2 0 -15 -15
-29 -33z"/>
<path d="M6066 8514 c-5 -14 -4 -15 9 -4 17 14 19 20 6 20 -5 0 -12 -7 -15
-16z"/>
<path d="M5582 7950 c-18 -17 -27 -30 -21 -30 6 0 8 -7 5 -17 -5 -13 0 -11 18
6 15 14 26 27 26 30 0 3 -5 0 -12 -7 -27 -27 -30 -10 -3 18 37 38 30 38 -13 0z"/>
<path d="M5440 7830 c-9 -6 -10 -10 -3 -10 6 0 15 5 18 10 8 12 4 12 -15 0z"/>
<path d="M5375 7780 c-3 -5 -1 -10 4 -10 6 0 11 5 11 10 0 6 -2 10 -4 10 -3 0
-8 -4 -11 -10z"/>
<path d="M5351 7757 c2 -1 13 -9 24 -17 19 -14 19 -14 6 3 -7 9 -18 17 -24 17
-6 0 -8 -1 -6 -3z"/>
<path d="M6020 7750 c8 -5 20 -10 25 -10 6 0 3 5 -5 10 -8 5 -19 10 -25 10 -5
0 -3 -5 5 -10z"/>
<path d="M6187 7629 c7 -7 15 -10 18 -7 3 3 -2 9 -12 12 -14 6 -15 5 -6 -5z"/>
<path d="M6225 7590 c3 -5 8 -10 11 -10 2 0 4 5 4 10 0 6 -5 10 -11 10 -5 0
-7 -4 -4 -10z"/>
<path d="M3135 7500 c-3 -6 1 -7 9 -4 18 7 21 14 7 14 -6 0 -13 -4 -16 -10z"/>
<path d="M2938 7433 c-10 -2 -18 -8 -18 -13 0 -5 14 -4 30 1 45 16 36 25 -12
12z"/>
<path d="M2845 7390 c-3 -6 1 -7 9 -4 18 7 21 14 7 14 -6 0 -13 -4 -16 -10z"/>
<path d="M2783 7360 c-13 -5 -23 -11 -23 -14 0 -7 40 6 46 15 6 10 6 10 -23
-1z"/>
<path d="M2705 7320 c-39 -26 -25 -26 17 0 18 11 29 20 23 20 -5 0 -23 -9 -40
-20z"/>
<path d="M6562 7275 c14 -13 33 -34 42 -47 9 -12 18 -20 20 -17 6 6 -68 89
-80 89 -5 0 3 -11 18 -25z"/>
<path d="M6671 7140 c12 -21 28 -41 36 -44 8 -3 0 14 -18 39 -40 56 -47 58
-18 5z"/>
<path d="M4489 6923 c-13 -16 -12 -17 4 -4 9 7 17 15 17 17 0 8 -8 3 -21 -13z"/>
<path d="M4509 6813 c-13 -16 -12 -17 4 -4 9 7 17 15 17 17 0 8 -8 3 -21 -13z"/>
<path d="M4507 6749 c7 -7 15 -10 18 -7 3 3 -2 9 -12 12 -14 6 -15 5 -6 -5z"/>
<path d="M4326 6725 c-9 -26 -7 -32 5 -12 6 10 9 21 6 23 -2 3 -7 -2 -11 -11z"/>
<path d="M6940 6735 c0 -5 5 -17 10 -25 5 -8 10 -10 10 -5 0 6 -5 17 -10 25
-5 8 -10 11 -10 5z"/>
<path d="M4289 6673 c-13 -16 -12 -17 4 -4 9 7 17 15 17 17 0 8 -8 3 -21 -13z"/>
<path d="M4255 6629 c-4 -6 -5 -12 -2 -15 2 -3 7 2 10 11 7 17 1 20 -8 4z"/>
<path d="M4215 6580 c-3 -5 -1 -10 4 -10 6 0 11 5 11 10 0 6 -2 10 -4 10 -3 0
-8 -4 -11 -10z"/>
<path d="M4166 6514 c-5 -14 -4 -15 9 -4 17 14 19 20 6 20 -5 0 -12 -7 -15
-16z"/>
<path d="M7055 6450 c3 -5 8 -10 11 -10 2 0 4 5 4 10 0 6 -5 10 -11 10 -5 0
-7 -4 -4 -10z"/>
<path d="M3793 6363 c15 -2 37 -2 50 0 12 2 0 4 -28 4 -27 0 -38 -2 -22 -4z"/>
<path d="M3598 6353 c7 -3 16 -2 19 1 4 3 -2 6 -13 5 -11 0 -14 -3 -6 -6z"/>
<path d="M2842 6223 c-24 -8 -41 -17 -39 -19 4 -5 97 26 97 32 0 6 -11 4 -58
-13z"/>
<path d="M3962 6220 c-7 -11 -8 -20 -3 -20 9 0 24 30 18 36 -1 2 -8 -6 -15
-16z"/>
<path d="M2620 6140 c-9 -6 -10 -10 -3 -10 6 0 15 5 18 10 8 12 4 12 -15 0z"/>
<path d="M2558 6103 c7 -3 16 -2 19 1 4 3 -2 6 -13 5 -11 0 -14 -3 -6 -6z"/>
<path d="M2475 6060 c-3 -5 -1 -10 4 -10 6 0 11 5 11 10 0 6 -2 10 -4 10 -3 0
-8 -4 -11 -10z"/>
<path d="M2353 5989 c-18 -12 -33 -23 -33 -25 0 -5 44 18 70 35 29 20 -5 10
-37 -10z"/>
<path d="M3755 5884 c-9 -15 -12 -23 -6 -20 11 7 35 46 28 46 -3 0 -12 -12
-22 -26z"/>
<path d="M5386 5707 c3 -10 9 -15 12 -12 3 3 0 11 -7 18 -10 9 -11 8 -5 -6z"/>
<path d="M3410 5259 c-7 -11 -10 -23 -7 -25 2 -2 9 7 15 21 14 30 7 33 -8 4z"/>
<path d="M3181 4583 c-1 -6 -4 -20 -7 -30 -5 -17 -5 -17 6 0 6 10 9 23 6 30
-3 9 -5 9 -5 0z"/>
<path d="M3085 4510 c-3 -5 -1 -10 4 -10 6 0 11 5 11 10 0 6 -2 10 -4 10 -3 0
-8 -4 -11 -10z"/>
<path d="M3118 4425 c-4 -16 -9 -39 -13 -50 -3 -11 1 -7 10 8 9 16 15 38 13
50 -3 19 -5 17 -10 -8z"/>
<path d="M3021 4144 c0 -11 3 -14 6 -6 3 7 2 16 -1 19 -3 4 -6 -2 -5 -13z"/>
<path d="M2840 4049 c0 -5 5 -7 10 -4 6 3 10 8 10 11 0 2 -4 4 -10 4 -5 0 -10
-5 -10 -11z"/>
<path d="M2915 4019 c-4 -6 -5 -12 -2 -15 2 -3 7 2 10 11 7 17 1 20 -8 4z"/>
<path d="M2870 3870 c0 -5 5 -10 10 -10 6 0 10 5 10 10 0 6 -4 10 -10 10 -5 0
-10 -4 -10 -10z"/>
<path d="M2074 3808 l-19 -23 23 19 c21 18 27 26 19 26 -2 0 -12 -10 -23 -22z"/>
<path d="M1885 3609 c-4 -6 -5 -12 -2 -15 2 -3 7 2 10 11 7 17 1 20 -8 4z"/>
<path d="M2787 3584 c-4 -4 -7 -17 -7 -28 1 -19 1 -20 11 -3 11 19 8 43 -4 31z"/>
<path d="M1834 3540 c-15 -22 -25 -42 -23 -44 2 -2 16 16 31 40 34 55 28 58
-8 4z"/>
<path d="M2716 3304 c-4 -20 -5 -38 -3 -40 3 -3 8 11 11 32 4 20 5 38 3 40 -3
3 -8 -11 -11 -32z"/>
<path d="M2632 2920 c0 -14 2 -19 5 -12 2 6 2 18 0 25 -3 6 -5 1 -5 -13z"/>
<path d="M2503 1550 c0 -25 2 -35 4 -22 2 12 2 32 0 45 -2 12 -4 2 -4 -23z"/>
<path d="M2472 1398 c0 -27 4 -48 9 -48 11 0 10 35 -1 70 -6 20 -8 15 -8 -22z"/>
<path d="M2337 1231 c2 -10 10 -18 18 -18 16 0 9 23 -10 30 -8 4 -11 -1 -8
-12z"/>
<path d="M2531 1034 c0 -11 3 -14 6 -6 3 7 2 16 -1 19 -3 4 -6 -2 -5 -13z"/>
<path d="M2476 993 c-4 -9 -4 -14 0 -10 4 4 14 1 23 -6 14 -11 15 -10 1 8 -8
11 -15 21 -16 23 -1 2 -5 -5 -8 -15z"/>
<path d="M2531 973 c-16 -17 -11 -25 8 -14 7 5 12 13 10 19 -2 6 -10 4 -18 -5z"/>
<path d="M5911 5144 c0 -11 3 -14 6 -6 3 7 2 16 -1 19 -3 4 -6 -2 -5 -13z"/>
<path d="M7793 3503 c9 -2 25 -2 35 0 9 3 1 5 -18 5 -19 0 -27 -2 -17 -5z"/>
<path d="M7910 3496 c0 -2 9 -6 20 -9 11 -3 18 -1 14 4 -5 9 -34 13 -34 5z"/>
<path d="M8170 3326 c0 -2 8 -10 18 -17 15 -13 16 -12 3 4 -13 16 -21 21 -21
13z"/>
<path d="M8210 3281 c0 -6 4 -13 10 -16 6 -3 7 1 4 9 -7 18 -14 21 -14 7z"/>
<path d="M6959 3193 c-13 -16 -12 -17 4 -4 16 13 21 21 13 21 -2 0 -10 -8 -17
-17z"/>
<path d="M8282 3130 c0 -14 2 -19 5 -12 2 6 2 18 0 25 -3 6 -5 1 -5 -13z"/>
<path d="M6797 3057 l-28 -22 32 -30 31 -30 -15 31 c-14 28 -14 33 -1 53 19
27 16 26 -19 -2z"/>
<path d="M8034 2654 c-18 -14 -18 -15 4 -4 12 6 22 13 22 15 0 8 -5 6 -26 -11z"/>
<path d="M4572 2770 c-8 -13 -8 -20 -2 -20 6 0 13 7 17 15 9 24 -1 27 -15 5z"/>
<path d="M7370 8970 c-17 -11 -16 -11 22 -14 21 -1 24 1 16 11 -12 15 -18 16
-38 3z"/>
<path d="M7325 8950 c-3 -6 1 -7 9 -4 18 7 21 14 7 14 -6 0 -13 -4 -16 -10z"/>
<path d="M7430 8946 c0 -2 8 -10 18 -17 15 -13 16 -12 3 4 -13 16 -21 21 -21
13z"/>
<path d="M5588 8853 c7 -3 16 -2 19 1 4 3 -2 6 -13 5 -11 0 -14 -3 -6 -6z"/>
<path d="M6790 8589 l-24 -21 24 -19 c14 -10 30 -19 35 -19 6 0 5 3 -1 8 -6 4
-11 22 -10 40 1 17 1 32 1 32 0 -1 -11 -10 -25 -21z"/>
<path d="M1719 7403 c-13 -16 -12 -17 4 -4 9 7 17 15 17 17 0 8 -8 3 -21 -13z"/>
<path d="M1083 5353 c9 -11 17 -27 17 -36 0 -27 17 -19 23 11 6 32 9 29 -28
38 -29 7 -30 7 -12 -13z"/>
<path d="M7620 5260 c0 -10 -3 -26 -6 -35 -4 -10 3 -7 20 9 31 32 31 32 6 39
-15 4 -20 0 -20 -13z"/>
<path d="M7205 4553 c-61 -76 -62 -72 4 -56 57 15 59 15 40 34 -10 10 -16 27
-14 39 2 11 3 20 2 20 -1 0 -15 -17 -32 -37z"/>
<path d="M8610 4396 c0 -2 7 -7 16 -10 8 -3 12 -2 9 4 -6 10 -25 14 -25 6z"/>
<path d="M6690 4309 c0 -5 5 -7 10 -4 6 3 10 8 10 11 0 2 -4 4 -10 4 -5 0 -10
-5 -10 -11z"/>
<path d="M1084 3901 c13 -14 26 -35 29 -46 3 -11 5 -1 6 21 1 39 -1 42 -29 46
l-30 5 24 -26z"/>
<path d="M1092 2960 c0 -14 2 -19 5 -12 2 6 2 18 0 25 -3 6 -5 1 -5 -13z"/>
<path d="M1301 2505 c15 -8 30 -25 34 -37 8 -22 8 -22 12 5 5 34 7 33 -37 40
l-35 6 26 -14z"/>
<path d="M5966 2235 c-22 -17 -2 -21 23 -6 9 6 24 4 40 -6 l26 -15 -24 21
c-27 25 -39 26 -65 6z"/>
<path d="M8899 1943 c-13 -16 -12 -17 4 -4 16 13 21 21 13 21 -2 0 -10 -8 -17
-17z"/>
<path d="M3855 1735 c-3 -8 -7 -23 -11 -32 -4 -14 0 -13 19 5 13 12 32 22 43
22 16 0 17 2 4 10 -22 14 -50 12 -55 -5z"/>
<path d="M1590 1684 c9 -3 23 -17 33 -32 l16 -27 1 33 c0 30 -2 32 -32 31 -18
-1 -26 -3 -18 -5z"/>
<path d="M3436 1367 c-3 -17 -5 -31 -4 -33 2 -1 15 8 30 19 l27 22 -24 11
c-21 10 -24 9 -29 -19z"/>
<path d="M1910 1092 c0 -5 8 -17 19 -26 18 -16 18 -16 14 9 -5 22 -33 37 -33
17z"/>
<path d="M2996 807 c-8 -29 -7 -68 1 -47 8 20 24 35 47 43 22 9 20 12 -15 20
-22 6 -28 3 -33 -16z"/>
</g>
</svg>
